<?xml version="1.0" encoding="utf-8"?>
<!-- Generator: Adobe Illustrator 20.1.0, SVG Export Plug-In . SVG Version: 6.00 Build 0)  -->
<svg version="1.1" id="Layer_1" xmlns="http://www.w3.org/2000/svg" xmlns:xlink="http://www.w3.org/1999/xlink" x="0px" y="0px"
	 viewBox="0 0 128 128" style="enable-background:new 0 0 128 128;" xml:space="preserve">
<style type="text/css">
	.st0{fill:#931B1E;}
</style>
<path id="facebook-circle-icon" class="st0" d="M64,0C28.7,0,0,28.7,0,64s28.7,64,64,64s64-28.7,64-64S99.3,0,64,0z M82.9,37.7
	c0,0-6.4,0-8.9,0c-3.2,0-3.8,1.3-3.8,4.6c0,2.7,0,7.9,0,7.9h12.8L81.7,64H70.2v41.4H53.7V64.1h-8.6v-14h8.6c0,0,0-2,0-11
	c0-10.4,5.5-15.8,17.8-15.8c2,0,11.4,0,11.4,0L82.9,37.7L82.9,37.7z"/>
</svg>
