<?xml version="1.0" encoding="utf-8"?>
<!-- Generator: Adobe Illustrator 20.1.0, SVG Export Plug-In . SVG Version: 6.00 Build 0)  -->
<svg version="1.1" id="Layer_1" xmlns="http://www.w3.org/2000/svg" xmlns:xlink="http://www.w3.org/1999/xlink" x="0px" y="0px"
	 viewBox="0 0 128 128" style="enable-background:new 0 0 128 128;" xml:space="preserve">
<style type="text/css">
	.st0{clip-path:url(#SVGID_2_);fill:#931B1E;}
</style>
<g>
	<g>
		<defs>
			<rect id="SVGID_1_" x="0" y="0" width="128" height="128"/>
		</defs>
		<clipPath id="SVGID_2_">
			<use xlink:href="#SVGID_1_"  style="overflow:visible;"/>
		</clipPath>
		<path class="st0" d="M96,94.6L96,94.6H82.3V72.5c0-5.5-2-9.3-7-9.3c-3.8,0-6,2.6-7,5c-0.4,0.9-0.5,2.1-0.5,3.3v23H54.1
			c0.2-37.4,0.2-37.4,0-41.3h8.1c0,0,5.6,0,5.6,2.9c0,0,0-2.9,0,0c0,0,0,2.9,0.9,1.5c0.9-1.4,4.2-5.4,11.5-5.4
			c9,0,15.8,5.9,15.8,18.6L96,94.6L96,94.6z M39.7,47.7L39.7,47.7c-4.7,0-7.7-3.2-7.7-7.1c0-4.1,3.1-7.1,7.8-7.1
			c4.7,0,7.6,3.1,7.6,5.1c0,0,0,2,0,4C47.4,44.5,44.5,47.7,39.7,47.7 M46.5,94.6L46.5,94.6h-6.9c0,0-6.9,0-6.9-8.1V53.3h6.9
			c0,0,6.9,0,6.9,8.1L46.5,94.6L46.5,94.6z M64,0C28.7,0,0,28.7,0,64c0,35.4,28.7,64,64,64c35.3,0,64-28.6,64-64
			C128,28.7,99.3,0,64,0"/>
	</g>
</g>
</svg>
