<?xml version="1.0" encoding="utf-8"?>
<!-- Generator: Adobe Illustrator 20.1.0, SVG Export Plug-In . SVG Version: 6.00 Build 0)  -->
<svg version="1.1" id="Layer_1" xmlns="http://www.w3.org/2000/svg" xmlns:xlink="http://www.w3.org/1999/xlink" x="0px" y="0px"
	 viewBox="0 0 128 128" style="enable-background:new 0 0 128 128;" xml:space="preserve">
<style type="text/css">
	.st0{fill:#FFFFFF;}
	.st1{fill:#931B1E;}
</style>
<g>
	<g>
		<defs>
			<rect id="SVGID_1_" x="0" y="0" width="128" height="128"/>
		</defs>
		<clipPath id="SVGID_2_">
			<use xlink:href="#SVGID_1_"  style="overflow:visible;"/>
		</clipPath>
	</g>
</g>
<g>
	<polygon class="st0" points="89.6,31.4 85.9,31.4 85.9,40.9 76.5,40.9 76.5,44.5 85.9,44.5 85.9,54 89.6,54 89.6,44.5 99,44.5 
		99,40.9 89.6,40.9 	"/>
</g>
<g>
	<path class="st1" d="M49.6,56.4c2.8,0,4.9-1.1,6.4-3.4c1.5-2.2,2.2-5.1,2.2-8.5c0-3.8-0.8-6.8-2.3-9c-1.5-2.2-3.7-3.4-6.4-3.4
		c-1.5,0-2.8,0.3-3.9,0.9c-1.1,0.6-2,1.5-2.6,2.7c-0.6,1.1-1.1,2.3-1.4,3.8c-0.3,1.5-0.4,3-0.4,4.6c0,3.6,0.8,6.5,2.3,8.7
		C45.1,55.3,47.1,56.4,49.6,56.4z"/>
	<path class="st1" d="M62.4,77.7c-0.9-0.1-2.8-0.3-5.6-0.4c-2.8-0.2-6.1-0.2-9.8-0.2c-3.5,0.7-6,1.8-7.4,3.4
		c-1.5,1.6-2.2,3.6-2.2,6.2c0,1.1,0.2,2.2,0.7,3.2c0.5,1,1.3,2,2.5,2.9c1.1,0.8,2.6,1.5,4.5,2.1c1.9,0.5,4.2,0.8,7,0.8
		c4.7,0,8.5-0.9,11.2-2.7c2.7-1.8,4.1-4.6,4.1-8.3c0-1.8-0.4-3.3-1.3-4.4C65.4,78.9,64.1,78.1,62.4,77.7z"/>
	<path class="st1" d="M64,0C28.7,0,0,28.7,0,64s28.7,64,64,64s64-28.7,64-64S99.3,0,64,0z M73.9,89.2c-1,2-2.5,3.8-4.5,5.2
		c-2.2,1.5-4.7,2.7-7.7,3.5c-3,0.8-6.7,1.3-11.1,1.3c-7.2,0-12.6-1.1-16.2-3.2c-3.6-2.1-5.4-5.2-5.4-9.3c0-3.3,1.3-5.9,3.9-7.8
		c2.6-1.9,5.9-2.9,9.9-3.1v-0.7c-1-0.3-2-0.7-3-1.1c-1-0.4-1.9-0.9-2.7-1.5c-0.8-0.7-1.5-1.5-2-2.4c-0.5-0.9-0.8-2.1-0.8-3.4
		c0-1.7,0.6-3.3,1.8-4.7c1.2-1.4,3-2.7,5.5-3.7v-0.7c-3.1-1.5-5.5-3.3-7.2-5.6c-1.7-2.3-2.6-4.9-2.6-7.9c0-4.5,1.7-8.2,5.1-11.1
		c3.4-2.9,7.7-4.3,12.9-4.3c1.4,0,2.9,0.1,4.3,0.4c1.4,0.3,2.9,0.7,4.4,1.1h16.6V35H63.9v0.3c1.2,1.4,2.1,2.9,2.7,4.6
		c0.6,1.7,0.9,3.3,0.9,4.9c0,4.2-1.7,7.7-5.1,10.6c-3.4,2.9-7.4,4.3-11.9,4.3h-5.8c-0.7,0.3-1.5,0.7-2.3,1.4
		c-0.8,0.7-1.2,1.6-1.2,2.8c0,1.2,0.3,2.1,1,2.7c0.7,0.6,1.5,1.1,2.5,1.3c0.9,0.3,2,0.4,3.3,0.5c1.2,0.1,2.5,0.1,3.8,0.1
		c1.4,0,3.4,0.1,5.8,0.3c2.5,0.2,4.2,0.3,5.2,0.3c1.5,0.1,3,0.4,4.5,1.1c1.5,0.6,2.9,1.5,4.1,2.7c1.3,1.2,2.3,2.6,3,4.2
		c0.7,1.5,1.1,3.5,1.1,5.8S74.9,87.2,73.9,89.2z M99,44.5h-9.4V54h-3.7v-9.4h-9.4v-3.6h9.4v-9.5h3.7v9.5H99V44.5z"/>
</g>
</svg>
