<?xml version="1.0" encoding="utf-8"?>
<!-- Generator: Adobe Illustrator 20.1.0, SVG Export Plug-In . SVG Version: 6.00 Build 0)  -->
<svg version="1.1" id="Layer_1" xmlns="http://www.w3.org/2000/svg" xmlns:xlink="http://www.w3.org/1999/xlink" x="0px" y="0px"
	 viewBox="0 0 128 128" style="enable-background:new 0 0 128 128;" xml:space="preserve">
<style type="text/css">
	.st0{fill:#FFFFFF;}
	.st1{fill:#931B1E;}
</style>
<g>
	<g>
		<defs>
			<rect id="SVGID_1_" x="0" y="0" width="128" height="128"/>
		</defs>
		<clipPath id="SVGID_2_">
			<use xlink:href="#SVGID_1_"  style="overflow:visible;"/>
		</clipPath>
	</g>
</g>
<g>
	<polygon class="st0" points="89.6,31.4 85.9,31.4 85.9,40.9 76.5,40.9 76.5,44.5 85.9,44.5 85.9,54 89.6,54 89.6,44.5 99,44.5 
		99,40.9 89.6,40.9 	"/>
</g>
<path class="st1" d="M64,0C28.7,0,0,28.7,0,64s28.7,64,64,64s64-28.7,64-64S99.3,0,64,0z M96.6,47.3c0,0.7,0.1,1.4,0.1,2.2
	c0,22.2-16.9,47.9-47.9,47.9c-9.5,0-18.4-2.8-25.8-7.6c1.3,0.2,2.7,0.2,4,0.2c7.9,0,15.1-2.7,20.9-7.2c-7.4-0.1-13.6-5-15.7-11.7
	c1,0.2,2.1,0.3,3.2,0.3c1.5,0,3-0.2,4.4-0.6c-7.7-1.5-13.5-8.3-13.5-16.5c0-0.1,0-0.1,0-0.2c2.3,1.3,4.9,2,7.6,2.1
	c-4.5-3-7.5-8.2-7.5-14c0-3.1,0.8-6,2.3-8.5C37,43.9,49.4,50.6,63.4,51.3c-0.3-1.2-0.4-2.5-0.4-3.8c0-9.3,7.5-16.8,16.8-16.8
	c4.8,0,9.2,2,12.3,5.3c3.8-0.8,7.4-2.2,10.7-4.1c-1.3,3.9-3.9,7.2-7.4,9.3c3.4-0.4,6.7-1.3,9.7-2.7C102.8,41.9,99.9,44.9,96.6,47.3z
	"/>
</svg>
